<svg width="24" height="24" viewBox="0 0 24 24" fill="none" xmlns="http://www.w3.org/2000/svg">
<g clip-path="url(#clip0_2_18353)">
<path d="M11.9953 0.00915527H8.99531V3.00915H11.9953V0.00915527ZM0 3.00775V6.00775H3V3.00775H0ZM6 0.00915527H3V3.00915H6V0.00915527ZM9 12.0045V15.0045H12V12.0045H9ZM0 9.0054V12.0054H3V9.0054H0ZM17.993 0.00915527H14.993V3.00915H17.993V0.00915527ZM23.993 0.00915527H20.993V3.00915H23.993V0.00915527ZM6 12.0045H3V15.0045H6V12.0045ZM23.9906 20.9998V17.9998H20.9906V20.9998H23.9906ZM23.9906 14.9998V11.9998H20.9906V14.9998H23.9906ZM17.993 23.9998H20.993V20.9998H17.993V23.9998ZM23.993 9.0054V6.0054H20.993V9.0054H23.993ZM6 23.9998H9V20.9998H6V23.9998ZM0 23.9998H3V20.9998H0V23.9998ZM11.9953 23.9998H14.9953V20.9998H11.9953V23.9998ZM0 15.0031V18.0031H3V15.0031H0ZM14.9944 6.00681V3.00681H11.9944V6.00681H14.9944ZM11.9944 12.0068H14.9944V9.00681H11.9944V12.0068ZM8.99438 18.0068V21.0068H11.9944V18.0068H8.99438ZM14.9944 15.0068H17.9944V12.0068H14.9944V15.0068ZM14.9944 9.00915H17.9944V6.00915H14.9944V9.00915ZM14.9944 18.0059V21.0059H17.9944V18.0059H14.9944ZM3 18.0021V21.0021H6V18.0021H3ZM9 6.00681V3.00681H6V6.00681H9ZM17.9963 18.0021H20.9963V15.0021H17.9963V18.0021ZM11.9963 9.0054V6.0054H8.99625V9.0054H11.9963ZM17.9963 3.00775V6.00775H20.9963V3.00775H17.9963ZM11.9963 15.0031V18.0031H14.9963V15.0031H11.9963ZM8.99625 9.0054H6V12.0054H9L8.99625 9.0054ZM17.9925 12.0054H20.9925V9.0054H17.9925V12.0054ZM6 6.00681H3V9.00681H6V6.00681ZM6 15.0031V18.0031H9V15.0031H6Z" fill="white"/>
</g>
<defs>
<clipPath id="clip0_2_18353">
<rect width="24" height="24" fill="white"/>
</clipPath>
</defs>
</svg>
